<svg width="350" height="60" viewBox="0 0 350 60" fill="none" xmlns="http://www.w3.org/2000/svg">
<path d="M346 0.000183105L350 4.00018V56.0002L346.003 59.9973H3.99707L0 56.0002V4.00018L4 0.000183105L3.99707 -0.00274658H346.003L346 0.000183105Z" fill="#FF4500"/>
<path d="M132.888 17.368C132.824 17.8587 132.771 18.392 132.728 18.968C132.707 19.544 132.696 20.088 132.696 20.6C132.717 21.496 132.739 22.4667 132.76 23.512C132.781 24.5573 132.803 25.6667 132.824 26.84C132.867 28.0133 132.899 29.2187 132.92 30.456C132.941 31.672 132.963 32.8987 132.984 34.136C133.005 35.352 133.027 36.5573 133.048 37.752C133.069 38.9253 133.091 40.056 133.112 41.144C133.133 42.168 132.845 42.9573 132.248 43.512C131.651 44.088 130.744 44.376 129.528 44.376C128.568 44.376 127.629 44.3547 126.712 44.312C125.795 44.2907 124.877 44.248 123.96 44.184L123.608 40.024C124.333 40.152 125.091 40.248 125.88 40.312C126.669 40.376 127.331 40.408 127.864 40.408C128.269 40.408 128.557 40.3013 128.728 40.088C128.899 39.8747 128.984 39.5333 128.984 39.064C128.984 38.3387 128.984 37.5067 128.984 36.568C128.984 35.608 128.973 34.5947 128.952 33.528C128.952 32.44 128.941 31.3307 128.92 30.2C128.899 29.048 128.877 27.9067 128.856 26.776C128.835 25.6453 128.803 24.5573 128.76 23.512C128.739 22.4667 128.707 21.496 128.664 20.6C128.621 19.896 128.568 19.288 128.504 18.776C128.461 18.2427 128.408 17.7733 128.344 17.368H132.888ZM114.616 22.68C115.085 22.744 115.651 22.7973 116.312 22.84C116.995 22.8827 117.613 22.904 118.168 22.904C118.488 22.904 119.032 22.904 119.8 22.904C120.568 22.904 121.475 22.904 122.52 22.904C123.587 22.904 124.717 22.904 125.912 22.904C127.107 22.904 128.291 22.904 129.464 22.904C130.637 22.904 131.736 22.904 132.76 22.904C133.784 22.904 134.648 22.904 135.352 22.904C136.056 22.904 136.515 22.904 136.728 22.904C137.24 22.904 137.827 22.8827 138.488 22.84C139.149 22.776 139.672 22.712 140.056 22.648V26.904C139.544 26.8827 139 26.8613 138.424 26.84C137.869 26.8187 137.379 26.808 136.952 26.808C136.76 26.808 136.312 26.808 135.608 26.808C134.904 26.808 134.029 26.808 132.984 26.808C131.96 26.808 130.84 26.808 129.624 26.808C128.408 26.808 127.181 26.808 125.944 26.808C124.728 26.808 123.576 26.808 122.488 26.808C121.421 26.808 120.515 26.808 119.768 26.808C119.021 26.808 118.52 26.808 118.264 26.808C117.688 26.808 117.08 26.8187 116.44 26.84C115.8 26.8613 115.192 26.8933 114.616 26.936V22.68ZM112.92 37.912C114.584 37.1227 116.173 36.2373 117.688 35.256C119.203 34.2747 120.589 33.2507 121.848 32.184C123.107 31.1173 124.216 30.0613 125.176 29.016C126.157 27.9493 126.936 26.9467 127.512 26.008L129.592 26.04L129.624 29.432C128.984 30.4133 128.163 31.4373 127.16 32.504C126.157 33.5707 125.048 34.6373 123.832 35.704C122.616 36.7707 121.325 37.784 119.96 38.744C118.595 39.6827 117.229 40.5147 115.864 41.24L112.92 37.912ZM171.448 21.688C171.299 21.9867 171.16 22.3493 171.032 22.776C170.925 23.1813 170.829 23.5653 170.744 23.928C170.573 24.696 170.349 25.5707 170.072 26.552C169.795 27.5333 169.464 28.5467 169.08 29.592C168.696 30.6373 168.237 31.672 167.704 32.696C167.192 33.72 166.605 34.68 165.944 35.576C164.984 36.8347 163.864 38.0293 162.584 39.16C161.304 40.2693 159.875 41.272 158.296 42.168C156.717 43.0427 154.979 43.7893 153.08 44.408L149.592 40.6C151.704 40.088 153.528 39.4587 155.064 38.712C156.621 37.944 157.976 37.0907 159.128 36.152C160.28 35.192 161.283 34.168 162.136 33.08C162.84 32.184 163.437 31.2133 163.928 30.168C164.44 29.1227 164.856 28.0667 165.176 27C165.517 25.9333 165.752 24.952 165.88 24.056C165.56 24.056 165.027 24.056 164.28 24.056C163.555 24.056 162.691 24.056 161.688 24.056C160.707 24.056 159.672 24.056 158.584 24.056C157.517 24.056 156.483 24.056 155.48 24.056C154.477 24.056 153.571 24.056 152.76 24.056C151.971 24.056 151.373 24.056 150.968 24.056C150.243 24.056 149.528 24.0667 148.824 24.088C148.141 24.1093 147.587 24.1413 147.16 24.184V19.672C147.501 19.6933 147.896 19.7253 148.344 19.768C148.792 19.8107 149.261 19.8533 149.752 19.896C150.243 19.9173 150.659 19.928 151 19.928C151.32 19.928 151.8 19.928 152.44 19.928C153.08 19.928 153.816 19.928 154.648 19.928C155.48 19.928 156.344 19.928 157.24 19.928C158.157 19.928 159.064 19.928 159.96 19.928C160.856 19.928 161.699 19.928 162.488 19.928C163.277 19.928 163.96 19.928 164.536 19.928C165.133 19.928 165.549 19.928 165.784 19.928C166.104 19.928 166.499 19.9173 166.968 19.896C167.437 19.8533 167.875 19.7787 168.28 19.672L171.448 21.688ZM203.448 27.032C203.299 27.2027 203.128 27.416 202.936 27.672C202.744 27.928 202.595 28.1413 202.488 28.312C202.211 28.76 201.827 29.3147 201.336 29.976C200.867 30.6373 200.333 31.352 199.736 32.12C199.139 32.8667 198.531 33.5707 197.912 34.232C197.293 34.8933 196.696 35.448 196.12 35.896L192.92 33.656C193.517 33.2293 194.125 32.728 194.744 32.152C195.363 31.576 195.917 30.9893 196.408 30.392C196.899 29.7733 197.272 29.24 197.528 28.792C197.272 28.792 196.792 28.792 196.088 28.792C195.384 28.792 194.552 28.792 193.592 28.792C192.653 28.792 191.661 28.792 190.616 28.792C189.571 28.792 188.568 28.792 187.608 28.792C186.648 28.792 185.816 28.792 185.112 28.792C184.408 28.792 183.917 28.792 183.64 28.792C183.107 28.792 182.563 28.8133 182.008 28.856C181.475 28.8773 180.909 28.92 180.312 28.984V24.856C180.824 24.9413 181.368 25.0053 181.944 25.048C182.541 25.0907 183.107 25.112 183.64 25.112C183.917 25.112 184.429 25.112 185.176 25.112C185.944 25.112 186.851 25.112 187.896 25.112C188.941 25.112 190.029 25.112 191.16 25.112C192.291 25.112 193.368 25.112 194.392 25.112C195.416 25.112 196.291 25.112 197.016 25.112C197.763 25.112 198.253 25.112 198.488 25.112C198.723 25.112 199.011 25.1013 199.352 25.08C199.693 25.0587 200.024 25.0373 200.344 25.016C200.685 24.9733 200.931 24.9307 201.08 24.888L203.448 27.032ZM192.472 30.392C192.429 31.5867 192.376 32.7707 192.312 33.944C192.248 35.096 192.088 36.2267 191.832 37.336C191.597 38.424 191.213 39.4907 190.68 40.536C190.147 41.56 189.4 42.5307 188.44 43.448C187.501 44.3867 186.285 45.272 184.792 46.104L181.4 43.384C181.827 43.2133 182.243 43.032 182.648 42.84C183.075 42.6267 183.523 42.3493 183.992 42.008C185.208 41.176 186.125 40.3013 186.744 39.384C187.363 38.4453 187.768 37.432 187.96 36.344C188.173 35.2347 188.28 34.008 188.28 32.664C188.28 32.28 188.259 31.896 188.216 31.512C188.173 31.1067 188.12 30.7333 188.056 30.392H192.472ZM209.944 28.184C210.328 28.2053 210.819 28.2373 211.416 28.28C212.013 28.3013 212.632 28.3227 213.272 28.344C213.933 28.3653 214.541 28.376 215.096 28.376C215.629 28.376 216.291 28.376 217.08 28.376C217.869 28.376 218.723 28.376 219.64 28.376C220.579 28.376 221.539 28.376 222.52 28.376C223.523 28.376 224.515 28.376 225.496 28.376C226.477 28.376 227.405 28.376 228.28 28.376C229.155 28.376 229.933 28.376 230.616 28.376C231.32 28.376 231.875 28.376 232.28 28.376C233.027 28.376 233.731 28.3547 234.392 28.312C235.053 28.248 235.597 28.2053 236.024 28.184V33.208C235.661 33.1867 235.117 33.1547 234.392 33.112C233.667 33.0693 232.963 33.048 232.28 33.048C231.875 33.048 231.32 33.048 230.616 33.048C229.912 33.048 229.123 33.048 228.248 33.048C227.373 33.048 226.445 33.048 225.464 33.048C224.504 33.048 223.523 33.048 222.52 33.048C221.517 33.048 220.547 33.048 219.608 33.048C218.691 33.048 217.837 33.048 217.048 33.048C216.28 33.048 215.629 33.048 215.096 33.048C214.179 33.048 213.24 33.0693 212.28 33.112C211.32 33.1333 210.541 33.1653 209.944 33.208V28.184Z" fill="white"/>
</svg>
