<svg width="414" height="85" viewBox="0 0 414 85" fill="none" xmlns="http://www.w3.org/2000/svg">
<path d="M369.279 4.89001H41.2793C21.397 4.89001 5.2793 21.0078 5.2793 40.89C5.2793 60.7723 21.397 76.89 41.2793 76.89H369.279C389.162 76.89 405.279 60.7723 405.279 40.89C405.279 21.0078 389.162 4.89001 369.279 4.89001Z" fill="#999999"/>
<g filter="url(#filter0_d_190_2)">
<path d="M369.279 4.89001H41.2793C21.397 4.89001 5.2793 21.0078 5.2793 40.89C5.2793 60.7723 21.397 76.89 41.2793 76.89H369.279C389.162 76.89 405.279 60.7723 405.279 40.89C405.279 21.0078 389.162 4.89001 369.279 4.89001Z" stroke="#F2F2F2" stroke-width="3" stroke-linecap="round" stroke-linejoin="round"/>
</g>
<g opacity="0.17">
<path d="M374.69 28.8601C374.69 36.2101 363.06 42.1601 348.72 42.1601H45.72C31.38 42.1601 19.75 36.2001 19.75 28.8601C19.75 21.5201 26.77 15.5601 41.12 15.5601H352.81C367.15 15.5601 374.69 21.5201 374.69 28.8601Z" fill="white"/>
</g>
<path d="M373.589 51.2199C378.781 51.2199 382.989 47.0114 382.989 41.8199C382.989 36.6284 378.781 32.4199 373.589 32.4199C368.398 32.4199 364.189 36.6284 364.189 41.8199C364.189 47.0114 368.398 51.2199 373.589 51.2199Z" fill="white"/>
<path d="M370.449 35.5598L379.229 41.8198L370.449 48.0898V35.5598Z" fill="#999999"/>
<path d="M154.888 29.368C154.824 29.8587 154.771 30.392 154.728 30.968C154.707 31.544 154.696 32.088 154.696 32.6C154.717 33.496 154.739 34.4667 154.76 35.512C154.781 36.5573 154.803 37.6667 154.824 38.84C154.867 40.0133 154.899 41.2187 154.92 42.456C154.941 43.672 154.963 44.8987 154.984 46.136C155.005 47.352 155.027 48.5573 155.048 49.752C155.069 50.9253 155.091 52.056 155.112 53.144C155.133 54.168 154.845 54.9573 154.248 55.512C153.651 56.088 152.744 56.376 151.528 56.376C150.568 56.376 149.629 56.3547 148.712 56.312C147.795 56.2907 146.877 56.248 145.96 56.184L145.608 52.024C146.333 52.152 147.091 52.248 147.88 52.312C148.669 52.376 149.331 52.408 149.864 52.408C150.269 52.408 150.557 52.3013 150.728 52.088C150.899 51.8747 150.984 51.5333 150.984 51.064C150.984 50.3387 150.984 49.5067 150.984 48.568C150.984 47.608 150.973 46.5947 150.952 45.528C150.952 44.44 150.941 43.3307 150.92 42.2C150.899 41.048 150.877 39.9067 150.856 38.776C150.835 37.6453 150.803 36.5573 150.76 35.512C150.739 34.4667 150.707 33.496 150.664 32.6C150.621 31.896 150.568 31.288 150.504 30.776C150.461 30.2427 150.408 29.7733 150.344 29.368H154.888ZM136.616 34.68C137.085 34.744 137.651 34.7973 138.312 34.84C138.995 34.8827 139.613 34.904 140.168 34.904C140.488 34.904 141.032 34.904 141.8 34.904C142.568 34.904 143.475 34.904 144.52 34.904C145.587 34.904 146.717 34.904 147.912 34.904C149.107 34.904 150.291 34.904 151.464 34.904C152.637 34.904 153.736 34.904 154.76 34.904C155.784 34.904 156.648 34.904 157.352 34.904C158.056 34.904 158.515 34.904 158.728 34.904C159.24 34.904 159.827 34.8827 160.488 34.84C161.149 34.776 161.672 34.712 162.056 34.648V38.904C161.544 38.8827 161 38.8613 160.424 38.84C159.869 38.8187 159.379 38.808 158.952 38.808C158.76 38.808 158.312 38.808 157.608 38.808C156.904 38.808 156.029 38.808 154.984 38.808C153.96 38.808 152.84 38.808 151.624 38.808C150.408 38.808 149.181 38.808 147.944 38.808C146.728 38.808 145.576 38.808 144.488 38.808C143.421 38.808 142.515 38.808 141.768 38.808C141.021 38.808 140.52 38.808 140.264 38.808C139.688 38.808 139.08 38.8187 138.44 38.84C137.8 38.8613 137.192 38.8933 136.616 38.936V34.68ZM134.92 49.912C136.584 49.1227 138.173 48.2373 139.688 47.256C141.203 46.2747 142.589 45.2507 143.848 44.184C145.107 43.1173 146.216 42.0613 147.176 41.016C148.157 39.9493 148.936 38.9467 149.512 38.008L151.592 38.04L151.624 41.432C150.984 42.4133 150.163 43.4373 149.16 44.504C148.157 45.5707 147.048 46.6373 145.832 47.704C144.616 48.7707 143.325 49.784 141.96 50.744C140.595 51.6827 139.229 52.5147 137.864 53.24L134.92 49.912ZM193.448 33.688C193.299 33.9867 193.16 34.3493 193.032 34.776C192.925 35.1813 192.829 35.5653 192.744 35.928C192.573 36.696 192.349 37.5707 192.072 38.552C191.795 39.5333 191.464 40.5467 191.08 41.592C190.696 42.6373 190.237 43.672 189.704 44.696C189.192 45.72 188.605 46.68 187.944 47.576C186.984 48.8347 185.864 50.0293 184.584 51.16C183.304 52.2693 181.875 53.272 180.296 54.168C178.717 55.0427 176.979 55.7893 175.08 56.408L171.592 52.6C173.704 52.088 175.528 51.4587 177.064 50.712C178.621 49.944 179.976 49.0907 181.128 48.152C182.28 47.192 183.283 46.168 184.136 45.08C184.84 44.184 185.437 43.2133 185.928 42.168C186.44 41.1227 186.856 40.0667 187.176 39C187.517 37.9333 187.752 36.952 187.88 36.056C187.56 36.056 187.027 36.056 186.28 36.056C185.555 36.056 184.691 36.056 183.688 36.056C182.707 36.056 181.672 36.056 180.584 36.056C179.517 36.056 178.483 36.056 177.48 36.056C176.477 36.056 175.571 36.056 174.76 36.056C173.971 36.056 173.373 36.056 172.968 36.056C172.243 36.056 171.528 36.0667 170.824 36.088C170.141 36.1093 169.587 36.1413 169.16 36.184V31.672C169.501 31.6933 169.896 31.7253 170.344 31.768C170.792 31.8107 171.261 31.8533 171.752 31.896C172.243 31.9173 172.659 31.928 173 31.928C173.32 31.928 173.8 31.928 174.44 31.928C175.08 31.928 175.816 31.928 176.648 31.928C177.48 31.928 178.344 31.928 179.24 31.928C180.157 31.928 181.064 31.928 181.96 31.928C182.856 31.928 183.699 31.928 184.488 31.928C185.277 31.928 185.96 31.928 186.536 31.928C187.133 31.928 187.549 31.928 187.784 31.928C188.104 31.928 188.499 31.9173 188.968 31.896C189.437 31.8533 189.875 31.7787 190.28 31.672L193.448 33.688ZM225.448 39.032C225.299 39.2027 225.128 39.416 224.936 39.672C224.744 39.928 224.595 40.1413 224.488 40.312C224.211 40.76 223.827 41.3147 223.336 41.976C222.867 42.6373 222.333 43.352 221.736 44.12C221.139 44.8667 220.531 45.5707 219.912 46.232C219.293 46.8933 218.696 47.448 218.12 47.896L214.92 45.656C215.517 45.2293 216.125 44.728 216.744 44.152C217.363 43.576 217.917 42.9893 218.408 42.392C218.899 41.7733 219.272 41.24 219.528 40.792C219.272 40.792 218.792 40.792 218.088 40.792C217.384 40.792 216.552 40.792 215.592 40.792C214.653 40.792 213.661 40.792 212.616 40.792C211.571 40.792 210.568 40.792 209.608 40.792C208.648 40.792 207.816 40.792 207.112 40.792C206.408 40.792 205.917 40.792 205.64 40.792C205.107 40.792 204.563 40.8133 204.008 40.856C203.475 40.8773 202.909 40.92 202.312 40.984V36.856C202.824 36.9413 203.368 37.0053 203.944 37.048C204.541 37.0907 205.107 37.112 205.64 37.112C205.917 37.112 206.429 37.112 207.176 37.112C207.944 37.112 208.851 37.112 209.896 37.112C210.941 37.112 212.029 37.112 213.16 37.112C214.291 37.112 215.368 37.112 216.392 37.112C217.416 37.112 218.291 37.112 219.016 37.112C219.763 37.112 220.253 37.112 220.488 37.112C220.723 37.112 221.011 37.1013 221.352 37.08C221.693 37.0587 222.024 37.0373 222.344 37.016C222.685 36.9733 222.931 36.9307 223.08 36.888L225.448 39.032ZM214.472 42.392C214.429 43.5867 214.376 44.7707 214.312 45.944C214.248 47.096 214.088 48.2267 213.832 49.336C213.597 50.424 213.213 51.4907 212.68 52.536C212.147 53.56 211.4 54.5307 210.44 55.448C209.501 56.3867 208.285 57.272 206.792 58.104L203.4 55.384C203.827 55.2133 204.243 55.032 204.648 54.84C205.075 54.6267 205.523 54.3493 205.992 54.008C207.208 53.176 208.125 52.3013 208.744 51.384C209.363 50.4453 209.768 49.432 209.96 48.344C210.173 47.2347 210.28 46.008 210.28 44.664C210.28 44.28 210.259 43.896 210.216 43.512C210.173 43.1067 210.12 42.7333 210.056 42.392H214.472ZM231.944 40.184C232.328 40.2053 232.819 40.2373 233.416 40.28C234.013 40.3013 234.632 40.3227 235.272 40.344C235.933 40.3653 236.541 40.376 237.096 40.376C237.629 40.376 238.291 40.376 239.08 40.376C239.869 40.376 240.723 40.376 241.64 40.376C242.579 40.376 243.539 40.376 244.52 40.376C245.523 40.376 246.515 40.376 247.496 40.376C248.477 40.376 249.405 40.376 250.28 40.376C251.155 40.376 251.933 40.376 252.616 40.376C253.32 40.376 253.875 40.376 254.28 40.376C255.027 40.376 255.731 40.3547 256.392 40.312C257.053 40.248 257.597 40.2053 258.024 40.184V45.208C257.661 45.1867 257.117 45.1547 256.392 45.112C255.667 45.0693 254.963 45.048 254.28 45.048C253.875 45.048 253.32 45.048 252.616 45.048C251.912 45.048 251.123 45.048 250.248 45.048C249.373 45.048 248.445 45.048 247.464 45.048C246.504 45.048 245.523 45.048 244.52 45.048C243.517 45.048 242.547 45.048 241.608 45.048C240.691 45.048 239.837 45.048 239.048 45.048C238.28 45.048 237.629 45.048 237.096 45.048C236.179 45.048 235.24 45.0693 234.28 45.112C233.32 45.1333 232.541 45.1653 231.944 45.208V40.184Z" fill="white"/>
<defs>
<filter id="filter0_d_190_2" x="0.659297" y="0.270015" width="412.48" height="84.4801" filterUnits="userSpaceOnUse" color-interpolation-filters="sRGB">
<feFlood flood-opacity="0" result="BackgroundImageFix"/>
<feColorMatrix in="SourceAlpha" type="matrix" values="0 0 0 0 0 0 0 0 0 0 0 0 0 0 0 0 0 0 127 0" result="hardAlpha"/>
<feOffset dx="1.62" dy="1.62"/>
<feGaussianBlur stdDeviation="2.37"/>
<feColorMatrix type="matrix" values="0 0 0 0 0.137255 0 0 0 0 0.0941176 0 0 0 0 0.0823529 0 0 0 0.75 0"/>
<feBlend mode="normal" in2="BackgroundImageFix" result="effect1_dropShadow_190_2"/>
<feBlend mode="normal" in="SourceGraphic" in2="effect1_dropShadow_190_2" result="shape"/>
</filter>
</defs>
</svg>
