<svg width="416" height="88" viewBox="0 0 416 88" fill="none" xmlns="http://www.w3.org/2000/svg">
<path d="M369.859 6.46997H41.8594C21.9771 6.46997 5.85938 22.5877 5.85938 42.47C5.85938 62.3522 21.9771 78.47 41.8594 78.47H369.859C389.742 78.47 405.859 62.3522 405.859 42.47C405.859 22.5877 389.742 6.46997 369.859 6.46997Z" fill="url(#paint0_linear_186_2)"/>
<g filter="url(#filter0_d_186_2)">
<path d="M369.859 6.46997H41.8594C21.9771 6.46997 5.85938 22.5877 5.85938 42.47C5.85938 62.3522 21.9771 78.47 41.8594 78.47H369.859C389.742 78.47 405.859 62.3522 405.859 42.47C405.859 22.5877 389.742 6.46997 369.859 6.46997Z" stroke="#F2F2F2" stroke-width="3" stroke-linecap="round" stroke-linejoin="round"/>
</g>
<g opacity="0.17">
<path d="M375.27 30.44C375.27 37.79 363.64 43.74 349.3 43.74H46.3001C31.9601 43.74 20.3301 37.78 20.3301 30.44C20.3301 23.1 27.3501 17.14 41.7001 17.14H353.39C367.73 17.14 375.27 23.1 375.27 30.44Z" fill="white"/>
</g>
<path d="M374.17 52.8C379.361 52.8 383.57 48.5915 383.57 43.4C383.57 38.2085 379.361 34 374.17 34C368.978 34 364.77 38.2085 364.77 43.4C364.77 48.5915 368.978 52.8 374.17 52.8Z" fill="white"/>
<path d="M371.039 37.14L379.809 43.4L371.039 49.67V37.14Z" fill="#FF4747"/>
<path d="M155.888 30.368C155.824 30.8587 155.771 31.392 155.728 31.968C155.707 32.544 155.696 33.088 155.696 33.6C155.717 34.496 155.739 35.4667 155.76 36.512C155.781 37.5573 155.803 38.6667 155.824 39.84C155.867 41.0133 155.899 42.2187 155.92 43.456C155.941 44.672 155.963 45.8987 155.984 47.136C156.005 48.352 156.027 49.5573 156.048 50.752C156.069 51.9253 156.091 53.056 156.112 54.144C156.133 55.168 155.845 55.9573 155.248 56.512C154.651 57.088 153.744 57.376 152.528 57.376C151.568 57.376 150.629 57.3547 149.712 57.312C148.795 57.2907 147.877 57.248 146.96 57.184L146.608 53.024C147.333 53.152 148.091 53.248 148.88 53.312C149.669 53.376 150.331 53.408 150.864 53.408C151.269 53.408 151.557 53.3013 151.728 53.088C151.899 52.8747 151.984 52.5333 151.984 52.064C151.984 51.3387 151.984 50.5067 151.984 49.568C151.984 48.608 151.973 47.5947 151.952 46.528C151.952 45.44 151.941 44.3307 151.92 43.2C151.899 42.048 151.877 40.9067 151.856 39.776C151.835 38.6453 151.803 37.5573 151.76 36.512C151.739 35.4667 151.707 34.496 151.664 33.6C151.621 32.896 151.568 32.288 151.504 31.776C151.461 31.2427 151.408 30.7733 151.344 30.368H155.888ZM137.616 35.68C138.085 35.744 138.651 35.7973 139.312 35.84C139.995 35.8827 140.613 35.904 141.168 35.904C141.488 35.904 142.032 35.904 142.8 35.904C143.568 35.904 144.475 35.904 145.52 35.904C146.587 35.904 147.717 35.904 148.912 35.904C150.107 35.904 151.291 35.904 152.464 35.904C153.637 35.904 154.736 35.904 155.76 35.904C156.784 35.904 157.648 35.904 158.352 35.904C159.056 35.904 159.515 35.904 159.728 35.904C160.24 35.904 160.827 35.8827 161.488 35.84C162.149 35.776 162.672 35.712 163.056 35.648V39.904C162.544 39.8827 162 39.8613 161.424 39.84C160.869 39.8187 160.379 39.808 159.952 39.808C159.76 39.808 159.312 39.808 158.608 39.808C157.904 39.808 157.029 39.808 155.984 39.808C154.96 39.808 153.84 39.808 152.624 39.808C151.408 39.808 150.181 39.808 148.944 39.808C147.728 39.808 146.576 39.808 145.488 39.808C144.421 39.808 143.515 39.808 142.768 39.808C142.021 39.808 141.52 39.808 141.264 39.808C140.688 39.808 140.08 39.8187 139.44 39.84C138.8 39.8613 138.192 39.8933 137.616 39.936V35.68ZM135.92 50.912C137.584 50.1227 139.173 49.2373 140.688 48.256C142.203 47.2747 143.589 46.2507 144.848 45.184C146.107 44.1173 147.216 43.0613 148.176 42.016C149.157 40.9493 149.936 39.9467 150.512 39.008L152.592 39.04L152.624 42.432C151.984 43.4133 151.163 44.4373 150.16 45.504C149.157 46.5707 148.048 47.6373 146.832 48.704C145.616 49.7707 144.325 50.784 142.96 51.744C141.595 52.6827 140.229 53.5147 138.864 54.24L135.92 50.912ZM194.448 34.688C194.299 34.9867 194.16 35.3493 194.032 35.776C193.925 36.1813 193.829 36.5653 193.744 36.928C193.573 37.696 193.349 38.5707 193.072 39.552C192.795 40.5333 192.464 41.5467 192.08 42.592C191.696 43.6373 191.237 44.672 190.704 45.696C190.192 46.72 189.605 47.68 188.944 48.576C187.984 49.8347 186.864 51.0293 185.584 52.16C184.304 53.2693 182.875 54.272 181.296 55.168C179.717 56.0427 177.979 56.7893 176.08 57.408L172.592 53.6C174.704 53.088 176.528 52.4587 178.064 51.712C179.621 50.944 180.976 50.0907 182.128 49.152C183.28 48.192 184.283 47.168 185.136 46.08C185.84 45.184 186.437 44.2133 186.928 43.168C187.44 42.1227 187.856 41.0667 188.176 40C188.517 38.9333 188.752 37.952 188.88 37.056C188.56 37.056 188.027 37.056 187.28 37.056C186.555 37.056 185.691 37.056 184.688 37.056C183.707 37.056 182.672 37.056 181.584 37.056C180.517 37.056 179.483 37.056 178.48 37.056C177.477 37.056 176.571 37.056 175.76 37.056C174.971 37.056 174.373 37.056 173.968 37.056C173.243 37.056 172.528 37.0667 171.824 37.088C171.141 37.1093 170.587 37.1413 170.16 37.184V32.672C170.501 32.6933 170.896 32.7253 171.344 32.768C171.792 32.8107 172.261 32.8533 172.752 32.896C173.243 32.9173 173.659 32.928 174 32.928C174.32 32.928 174.8 32.928 175.44 32.928C176.08 32.928 176.816 32.928 177.648 32.928C178.48 32.928 179.344 32.928 180.24 32.928C181.157 32.928 182.064 32.928 182.96 32.928C183.856 32.928 184.699 32.928 185.488 32.928C186.277 32.928 186.96 32.928 187.536 32.928C188.133 32.928 188.549 32.928 188.784 32.928C189.104 32.928 189.499 32.9173 189.968 32.896C190.437 32.8533 190.875 32.7787 191.28 32.672L194.448 34.688ZM226.448 40.032C226.299 40.2027 226.128 40.416 225.936 40.672C225.744 40.928 225.595 41.1413 225.488 41.312C225.211 41.76 224.827 42.3147 224.336 42.976C223.867 43.6373 223.333 44.352 222.736 45.12C222.139 45.8667 221.531 46.5707 220.912 47.232C220.293 47.8933 219.696 48.448 219.12 48.896L215.92 46.656C216.517 46.2293 217.125 45.728 217.744 45.152C218.363 44.576 218.917 43.9893 219.408 43.392C219.899 42.7733 220.272 42.24 220.528 41.792C220.272 41.792 219.792 41.792 219.088 41.792C218.384 41.792 217.552 41.792 216.592 41.792C215.653 41.792 214.661 41.792 213.616 41.792C212.571 41.792 211.568 41.792 210.608 41.792C209.648 41.792 208.816 41.792 208.112 41.792C207.408 41.792 206.917 41.792 206.64 41.792C206.107 41.792 205.563 41.8133 205.008 41.856C204.475 41.8773 203.909 41.92 203.312 41.984V37.856C203.824 37.9413 204.368 38.0053 204.944 38.048C205.541 38.0907 206.107 38.112 206.64 38.112C206.917 38.112 207.429 38.112 208.176 38.112C208.944 38.112 209.851 38.112 210.896 38.112C211.941 38.112 213.029 38.112 214.16 38.112C215.291 38.112 216.368 38.112 217.392 38.112C218.416 38.112 219.291 38.112 220.016 38.112C220.763 38.112 221.253 38.112 221.488 38.112C221.723 38.112 222.011 38.1013 222.352 38.08C222.693 38.0587 223.024 38.0373 223.344 38.016C223.685 37.9733 223.931 37.9307 224.08 37.888L226.448 40.032ZM215.472 43.392C215.429 44.5867 215.376 45.7707 215.312 46.944C215.248 48.096 215.088 49.2267 214.832 50.336C214.597 51.424 214.213 52.4907 213.68 53.536C213.147 54.56 212.4 55.5307 211.44 56.448C210.501 57.3867 209.285 58.272 207.792 59.104L204.4 56.384C204.827 56.2133 205.243 56.032 205.648 55.84C206.075 55.6267 206.523 55.3493 206.992 55.008C208.208 54.176 209.125 53.3013 209.744 52.384C210.363 51.4453 210.768 50.432 210.96 49.344C211.173 48.2347 211.28 47.008 211.28 45.664C211.28 45.28 211.259 44.896 211.216 44.512C211.173 44.1067 211.12 43.7333 211.056 43.392H215.472ZM232.944 41.184C233.328 41.2053 233.819 41.2373 234.416 41.28C235.013 41.3013 235.632 41.3227 236.272 41.344C236.933 41.3653 237.541 41.376 238.096 41.376C238.629 41.376 239.291 41.376 240.08 41.376C240.869 41.376 241.723 41.376 242.64 41.376C243.579 41.376 244.539 41.376 245.52 41.376C246.523 41.376 247.515 41.376 248.496 41.376C249.477 41.376 250.405 41.376 251.28 41.376C252.155 41.376 252.933 41.376 253.616 41.376C254.32 41.376 254.875 41.376 255.28 41.376C256.027 41.376 256.731 41.3547 257.392 41.312C258.053 41.248 258.597 41.2053 259.024 41.184V46.208C258.661 46.1867 258.117 46.1547 257.392 46.112C256.667 46.0693 255.963 46.048 255.28 46.048C254.875 46.048 254.32 46.048 253.616 46.048C252.912 46.048 252.123 46.048 251.248 46.048C250.373 46.048 249.445 46.048 248.464 46.048C247.504 46.048 246.523 46.048 245.52 46.048C244.517 46.048 243.547 46.048 242.608 46.048C241.691 46.048 240.837 46.048 240.048 46.048C239.28 46.048 238.629 46.048 238.096 46.048C237.179 46.048 236.24 46.0693 235.28 46.112C234.32 46.1333 233.541 46.1653 232.944 46.208V41.184Z" fill="white"/>
<defs>
<filter id="filter0_d_186_2" x="1.23938" y="1.84997" width="412.48" height="84.48" filterUnits="userSpaceOnUse" color-interpolation-filters="sRGB">
<feFlood flood-opacity="0" result="BackgroundImageFix"/>
<feColorMatrix in="SourceAlpha" type="matrix" values="0 0 0 0 0 0 0 0 0 0 0 0 0 0 0 0 0 0 127 0" result="hardAlpha"/>
<feOffset dx="1.62" dy="1.62"/>
<feGaussianBlur stdDeviation="2.37"/>
<feColorMatrix type="matrix" values="0 0 0 0 0.137255 0 0 0 0 0.0941176 0 0 0 0 0.0823529 0 0 0 0.75 0"/>
<feBlend mode="normal" in2="BackgroundImageFix" result="effect1_dropShadow_186_2"/>
<feBlend mode="normal" in="SourceGraphic" in2="effect1_dropShadow_186_2" result="shape"/>
</filter>
<linearGradient id="paint0_linear_186_2" x1="205.859" y1="78.47" x2="205.859" y2="6.46997" gradientUnits="userSpaceOnUse">
<stop stop-color="#FF4747"/>
<stop offset="0.02" stop-color="#F4542D"/>
<stop offset="0.04" stop-color="#F15A24"/>
<stop offset="0.64" stop-color="#FB4C3D"/>
<stop offset="1" stop-color="#FF4747"/>
</linearGradient>
</defs>
</svg>
