<svg width="350" height="60" viewBox="0 0 350 60" fill="none" xmlns="http://www.w3.org/2000/svg">
<path d="M346 0.000183105L350 4.00018V56.0002L346.003 59.9973H3.99707L0 56.0002V4.00018L4 0.000183105L3.99707 -0.00274658H346.003L346 0.000183105Z" fill="#B0BAC9"/>
<path d="M132.888 15.368C132.824 15.8587 132.771 16.392 132.728 16.968C132.707 17.544 132.696 18.088 132.696 18.6C132.717 19.496 132.739 20.4667 132.76 21.512C132.781 22.5573 132.803 23.6667 132.824 24.84C132.867 26.0133 132.899 27.2187 132.92 28.456C132.941 29.672 132.963 30.8987 132.984 32.136C133.005 33.352 133.027 34.5573 133.048 35.752C133.069 36.9253 133.091 38.056 133.112 39.144C133.133 40.168 132.845 40.9573 132.248 41.512C131.651 42.088 130.744 42.376 129.528 42.376C128.568 42.376 127.629 42.3547 126.712 42.312C125.795 42.2907 124.877 42.248 123.96 42.184L123.608 38.024C124.333 38.152 125.091 38.248 125.88 38.312C126.669 38.376 127.331 38.408 127.864 38.408C128.269 38.408 128.557 38.3013 128.728 38.088C128.899 37.8747 128.984 37.5333 128.984 37.064C128.984 36.3387 128.984 35.5067 128.984 34.568C128.984 33.608 128.973 32.5947 128.952 31.528C128.952 30.44 128.941 29.3307 128.92 28.2C128.899 27.048 128.877 25.9067 128.856 24.776C128.835 23.6453 128.803 22.5573 128.76 21.512C128.739 20.4667 128.707 19.496 128.664 18.6C128.621 17.896 128.568 17.288 128.504 16.776C128.461 16.2427 128.408 15.7733 128.344 15.368H132.888ZM114.616 20.68C115.085 20.744 115.651 20.7973 116.312 20.84C116.995 20.8827 117.613 20.904 118.168 20.904C118.488 20.904 119.032 20.904 119.8 20.904C120.568 20.904 121.475 20.904 122.52 20.904C123.587 20.904 124.717 20.904 125.912 20.904C127.107 20.904 128.291 20.904 129.464 20.904C130.637 20.904 131.736 20.904 132.76 20.904C133.784 20.904 134.648 20.904 135.352 20.904C136.056 20.904 136.515 20.904 136.728 20.904C137.24 20.904 137.827 20.8827 138.488 20.84C139.149 20.776 139.672 20.712 140.056 20.648V24.904C139.544 24.8827 139 24.8613 138.424 24.84C137.869 24.8187 137.379 24.808 136.952 24.808C136.76 24.808 136.312 24.808 135.608 24.808C134.904 24.808 134.029 24.808 132.984 24.808C131.96 24.808 130.84 24.808 129.624 24.808C128.408 24.808 127.181 24.808 125.944 24.808C124.728 24.808 123.576 24.808 122.488 24.808C121.421 24.808 120.515 24.808 119.768 24.808C119.021 24.808 118.52 24.808 118.264 24.808C117.688 24.808 117.08 24.8187 116.44 24.84C115.8 24.8613 115.192 24.8933 114.616 24.936V20.68ZM112.92 35.912C114.584 35.1227 116.173 34.2373 117.688 33.256C119.203 32.2747 120.589 31.2507 121.848 30.184C123.107 29.1173 124.216 28.0613 125.176 27.016C126.157 25.9493 126.936 24.9467 127.512 24.008L129.592 24.04L129.624 27.432C128.984 28.4133 128.163 29.4373 127.16 30.504C126.157 31.5707 125.048 32.6373 123.832 33.704C122.616 34.7707 121.325 35.784 119.96 36.744C118.595 37.6827 117.229 38.5147 115.864 39.24L112.92 35.912ZM171.448 19.688C171.299 19.9867 171.16 20.3493 171.032 20.776C170.925 21.1813 170.829 21.5653 170.744 21.928C170.573 22.696 170.349 23.5707 170.072 24.552C169.795 25.5333 169.464 26.5467 169.08 27.592C168.696 28.6373 168.237 29.672 167.704 30.696C167.192 31.72 166.605 32.68 165.944 33.576C164.984 34.8347 163.864 36.0293 162.584 37.16C161.304 38.2693 159.875 39.272 158.296 40.168C156.717 41.0427 154.979 41.7893 153.08 42.408L149.592 38.6C151.704 38.088 153.528 37.4587 155.064 36.712C156.621 35.944 157.976 35.0907 159.128 34.152C160.28 33.192 161.283 32.168 162.136 31.08C162.84 30.184 163.437 29.2133 163.928 28.168C164.44 27.1227 164.856 26.0667 165.176 25C165.517 23.9333 165.752 22.952 165.88 22.056C165.56 22.056 165.027 22.056 164.28 22.056C163.555 22.056 162.691 22.056 161.688 22.056C160.707 22.056 159.672 22.056 158.584 22.056C157.517 22.056 156.483 22.056 155.48 22.056C154.477 22.056 153.571 22.056 152.76 22.056C151.971 22.056 151.373 22.056 150.968 22.056C150.243 22.056 149.528 22.0667 148.824 22.088C148.141 22.1093 147.587 22.1413 147.16 22.184V17.672C147.501 17.6933 147.896 17.7253 148.344 17.768C148.792 17.8107 149.261 17.8533 149.752 17.896C150.243 17.9173 150.659 17.928 151 17.928C151.32 17.928 151.8 17.928 152.44 17.928C153.08 17.928 153.816 17.928 154.648 17.928C155.48 17.928 156.344 17.928 157.24 17.928C158.157 17.928 159.064 17.928 159.96 17.928C160.856 17.928 161.699 17.928 162.488 17.928C163.277 17.928 163.96 17.928 164.536 17.928C165.133 17.928 165.549 17.928 165.784 17.928C166.104 17.928 166.499 17.9173 166.968 17.896C167.437 17.8533 167.875 17.7787 168.28 17.672L171.448 19.688ZM203.448 25.032C203.299 25.2027 203.128 25.416 202.936 25.672C202.744 25.928 202.595 26.1413 202.488 26.312C202.211 26.76 201.827 27.3147 201.336 27.976C200.867 28.6373 200.333 29.352 199.736 30.12C199.139 30.8667 198.531 31.5707 197.912 32.232C197.293 32.8933 196.696 33.448 196.12 33.896L192.92 31.656C193.517 31.2293 194.125 30.728 194.744 30.152C195.363 29.576 195.917 28.9893 196.408 28.392C196.899 27.7733 197.272 27.24 197.528 26.792C197.272 26.792 196.792 26.792 196.088 26.792C195.384 26.792 194.552 26.792 193.592 26.792C192.653 26.792 191.661 26.792 190.616 26.792C189.571 26.792 188.568 26.792 187.608 26.792C186.648 26.792 185.816 26.792 185.112 26.792C184.408 26.792 183.917 26.792 183.64 26.792C183.107 26.792 182.563 26.8133 182.008 26.856C181.475 26.8773 180.909 26.92 180.312 26.984V22.856C180.824 22.9413 181.368 23.0053 181.944 23.048C182.541 23.0907 183.107 23.112 183.64 23.112C183.917 23.112 184.429 23.112 185.176 23.112C185.944 23.112 186.851 23.112 187.896 23.112C188.941 23.112 190.029 23.112 191.16 23.112C192.291 23.112 193.368 23.112 194.392 23.112C195.416 23.112 196.291 23.112 197.016 23.112C197.763 23.112 198.253 23.112 198.488 23.112C198.723 23.112 199.011 23.1013 199.352 23.08C199.693 23.0587 200.024 23.0373 200.344 23.016C200.685 22.9733 200.931 22.9307 201.08 22.888L203.448 25.032ZM192.472 28.392C192.429 29.5867 192.376 30.7707 192.312 31.944C192.248 33.096 192.088 34.2267 191.832 35.336C191.597 36.424 191.213 37.4907 190.68 38.536C190.147 39.56 189.4 40.5307 188.44 41.448C187.501 42.3867 186.285 43.272 184.792 44.104L181.4 41.384C181.827 41.2133 182.243 41.032 182.648 40.84C183.075 40.6267 183.523 40.3493 183.992 40.008C185.208 39.176 186.125 38.3013 186.744 37.384C187.363 36.4453 187.768 35.432 187.96 34.344C188.173 33.2347 188.28 32.008 188.28 30.664C188.28 30.28 188.259 29.896 188.216 29.512C188.173 29.1067 188.12 28.7333 188.056 28.392H192.472ZM209.944 26.184C210.328 26.2053 210.819 26.2373 211.416 26.28C212.013 26.3013 212.632 26.3227 213.272 26.344C213.933 26.3653 214.541 26.376 215.096 26.376C215.629 26.376 216.291 26.376 217.08 26.376C217.869 26.376 218.723 26.376 219.64 26.376C220.579 26.376 221.539 26.376 222.52 26.376C223.523 26.376 224.515 26.376 225.496 26.376C226.477 26.376 227.405 26.376 228.28 26.376C229.155 26.376 229.933 26.376 230.616 26.376C231.32 26.376 231.875 26.376 232.28 26.376C233.027 26.376 233.731 26.3547 234.392 26.312C235.053 26.248 235.597 26.2053 236.024 26.184V31.208C235.661 31.1867 235.117 31.1547 234.392 31.112C233.667 31.0693 232.963 31.048 232.28 31.048C231.875 31.048 231.32 31.048 230.616 31.048C229.912 31.048 229.123 31.048 228.248 31.048C227.373 31.048 226.445 31.048 225.464 31.048C224.504 31.048 223.523 31.048 222.52 31.048C221.517 31.048 220.547 31.048 219.608 31.048C218.691 31.048 217.837 31.048 217.048 31.048C216.28 31.048 215.629 31.048 215.096 31.048C214.179 31.048 213.24 31.0693 212.28 31.112C211.32 31.1333 210.541 31.1653 209.944 31.208V26.184Z" fill="white"/>
</svg>
