<?xml version="1.0" encoding="UTF-8"?>
<svg id="_レイヤー_2" data-name="レイヤー_2" xmlns="http://www.w3.org/2000/svg" viewBox="0 0 317.92 75.75">
  <defs>
    <style>
      .cls-1 {
        fill: #fff;
      }

      .cls-2 {
        fill: #414141;
      }

      .cls-3 {
        fill: #e60039;
      }
    </style>
  </defs>
  <g id="_レイヤー_1-2" data-name="レイヤー_1">
    <g id="_レイヤー_1-2">
      <g>
        <path class="cls-3" d="M51.27,20.8l-.44-20.8-11.24,20.07C17.54,20.78,0,32.97,0,47.9s18.63,27.85,41.62,27.85,41.62-12.47,41.62-27.85c0-13.16-13.64-24.18-31.98-27.09Z"/>
        <path class="cls-1" d="M63.01,57.63c-3.12,0-5.6-.94-7.45-2.85-1.97-2.03-2.98-4.88-2.98-8.64-.03-3.68,1.04-6.76,3.19-9.17,2.03-2.33,4.5-3.5,7.42-3.5,2.41,0,4.44.98,6.1,2.85,1.73,1.95,2.59,4.47,2.59,7.48,0,2.74-.65,4.92-1.9,6.53-1.19,1.5-2.38,2.26-3.6,2.26s-1.9-.75-2.06-2.26c-1.08,1.58-2.2,2.33-3.42,2.33-1.13,0-2.03-.41-2.65-1.28s-.95-2.03-.95-3.46c-.03-2.26.54-4.39,1.67-6.42,1.19-2.18,2.65-3.27,4.34-3.27,1.19,0,2.08.67,2.65,2.03l.21-1.12h1.93l-1.6,7.7c-.3,1.35-.41,2.22-.41,2.63,0,.45.18.67.6.67.57,0,1.19-.41,1.84-1.28.95-1.24,1.46-3.15,1.46-5.71,0-2.03-.68-3.8-2.03-5.22-1.37-1.43-2.98-2.18-4.77-2.18-2.33,0-4.26.98-5.8,2.93-1.58,1.95-2.35,4.43-2.35,7.44s.74,5.37,2.23,6.95c1.4,1.5,3.39,2.26,5.96,2.26s4.98-1.35,7.45-4.09l1.31,1.09c-2.33,3.53-5.3,5.29-8.96,5.29h0ZM64.37,41.52c-.36-.41-.74-.64-1.19-.64-.84,0-1.63.86-2.41,2.56-.71,1.54-1.04,2.85-1.04,3.98,0,1.65.41,2.44,1.31,2.44.81,0,1.6-.67,2.41-2.03.92-1.58,1.4-3.19,1.4-4.8,0-.57-.18-1.05-.48-1.5Z"/>
        <path class="cls-1" d="M22.42,56.81c-3.16,0-5.67-.94-7.53-2.85-1.99-2.03-3.02-4.88-3.02-8.64-.03-3.68,1.06-6.76,3.23-9.17,2.05-2.33,4.55-3.5,7.5-3.5,2.44,0,4.49.98,6.18,2.85,1.75,1.95,2.62,4.47,2.62,7.48,0,2.74-.66,4.92-1.93,6.53-1.2,1.5-2.41,2.26-3.65,2.26s-1.93-.75-2.08-2.26c-1.09,1.58-2.23,2.33-3.47,2.33-1.14,0-2.05-.41-2.68-1.28s-.96-2.03-.96-3.46c-.03-2.26.54-4.39,1.69-6.42,1.2-2.18,2.68-3.27,4.4-3.27,1.2,0,2.11.67,2.68,2.03l.21-1.12h1.96l-1.62,7.7c-.3,1.35-.42,2.22-.42,2.63,0,.45.18.67.61.67.58,0,1.2-.41,1.86-1.28.96-1.24,1.48-3.15,1.48-5.71,0-2.03-.69-3.8-2.05-5.22-1.38-1.43-3.02-2.18-4.82-2.18-2.35,0-4.31.98-5.88,2.93-1.59,1.95-2.38,4.43-2.38,7.44s.75,5.37,2.26,6.95c1.41,1.5,3.44,2.26,6.02,2.26s5.03-1.35,7.53-4.09l1.33,1.09c-2.35,3.53-5.36,5.29-9.07,5.29h0ZM23.8,40.7c-.37-.41-.75-.64-1.2-.64-.85,0-1.66.86-2.44,2.56-.72,1.54-1.06,2.85-1.06,3.98,0,1.65.42,2.44,1.33,2.44.82,0,1.62-.67,2.44-2.03.93-1.58,1.41-3.19,1.41-4.8,0-.57-.18-1.05-.48-1.5Z"/>
        <ellipse class="cls-1" cx="41.39" cy="51.71" rx="3.63" ry="2.49"/>
      </g>
    </g>
    <path class="cls-2" d="M102.46,32.76l4.81.13c-.39,8.39-.58,15.09-.58,20.1,0,2.64.15,4.78.45,6.43.3,1.65.81,2.93,1.53,3.84s1.56,1.53,2.52,1.84c.96.31,2.2.47,3.73.47,6.11,0,10.91-4.48,14.39-13.44l4.27,1.62c-1.98,5.43-4.56,9.5-7.76,12.23-3.19,2.73-6.83,4.09-10.9,4.09-4.89,0-8.28-1.22-10.18-3.66-1.9-2.44-2.86-6.92-2.86-13.42,0-5.93.19-12.68.58-20.23Z"/>
    <path class="cls-2" d="M143.23,59.73c0-3,2.25-6.7,6.74-11.1l3.42,2.74c-3.57,3.45-5.35,6.09-5.35,7.91s1.08,3.18,3.24,4.25c2.16,1.06,5.17,1.6,9.04,1.6,2.19,0,4.74-.19,7.66-.58,2.92-.39,5.33-.87,7.22-1.44l.9,4.27c-1.95.57-4.46,1.05-7.53,1.44-3.07.39-5.82.58-8.25.58-5.28,0-9.44-.88-12.5-2.65-3.06-1.77-4.59-4.11-4.59-7.01ZM147.28,38.46v-4.14h26.08v4.14h-26.08ZM168.13,43.88l3.34-1.73c1.65,2.91,2.87,5.15,3.67,6.71l-3.34,1.61c-1.26-2.39-2.48-4.58-3.67-6.59ZM174.22,42.39l3.42-1.77c1.4,2.47,2.65,4.75,3.75,6.84l-3.42,1.65c-1.15-2.2-2.4-4.43-3.75-6.71Z"/>
    <path class="cls-2" d="M195.1,33.03l4.81-.76c.84,4.86,1.8,9.46,2.88,13.8,4.61-2.07,10.65-3.96,18.12-5.66l.9,4.27c-8.75,1.98-15.32,4.19-19.69,6.63-4.38,2.44-6.56,4.95-6.56,7.53,0,4.35,3.97,6.52,11.91,6.52,4.38,0,9.08-.37,14.12-1.12l.54,4.27c-5.13.75-10.01,1.12-14.66,1.12-5.54,0-9.74-.9-12.59-2.7-2.85-1.8-4.27-4.42-4.27-7.87,0-3.99,2.56-7.54,7.69-10.65-1.23-4.98-2.29-10.1-3.19-15.38Z"/>
    <path class="cls-2" d="M233.71,41.07h17.98v-8.77h4.95v8.77h14.84v4.5h-14.84v1.12c0,6.89-1.33,12.08-4,15.56-2.67,3.48-7.12,5.86-13.35,7.15l-1.62-4.36c5.27-1.11,8.93-3,10.97-5.66,2.04-2.67,3.06-6.89,3.06-12.68v-1.12h-17.98v-4.5Z"/>
    <path class="cls-2" d="M282.52,34.33h4.81v13.13c8.57-1.41,17.2-3.61,25.9-6.61l1.3,4.27c-8.99,3.09-18.06,5.37-27.2,6.83v6.29c0,2.58.4,4.27,1.21,5.08s2.5,1.21,5.08,1.21c7.49,0,14.24-.21,20.23-.63l.14,4.36c-7.19.45-14.09.67-20.68.67-4.14,0-6.97-.76-8.5-2.27-1.53-1.51-2.29-4.35-2.29-8.52v-23.83ZM304.82,32.87l3.3-1.71c1.63,2.88,2.84,5.09,3.62,6.64l-3.3,1.59c-1.25-2.36-2.46-4.53-3.62-6.51ZM310.84,31.4l3.38-1.75c1.38,2.44,2.62,4.69,3.7,6.76l-3.38,1.63c-1.14-2.17-2.38-4.38-3.7-6.64Z"/>
    <g>
      <path class="cls-2" d="M113.44,10.15s-.01.39-.01.52c-.13,6.37-.24,8.4-.66,8.99-.24.37-.49.48-.88.52-.37.04-.94.04-1.49,0-.01-.27-.1-.7-.27-.97.58.04,1.1.06,1.34.06.19,0,.33-.03.45-.24.28-.42.42-2.35.54-7.9h-1.34v.42c0,2.86-.28,6.34-2.38,8.83-.16-.18-.55-.45-.82-.58.15-.18.3-.36.43-.55-1.8.22-3.6.42-4.99.58l-.18-.94,2.59-.24v-1.25h-2.22v-.86h2.22v-.95h-2.17v-4.33h2.17v-.94h-2.37v-.86h2.37v-.91c-.74.07-1.49.13-2.19.18-.05-.24-.15-.57-.27-.79-.22.67-.48,1.32-.76,1.96v10.42h-1v-8.41c-.42.73-.85,1.4-1.31,1.98-.09-.27-.39-.85-.55-1.12,1.21-1.47,2.28-3.71,2.92-5.97l.98.27c-.09.28-.18.58-.28.86,1.76-.15,3.89-.4,5.14-.71l.59.8c-.65.16-1.46.3-2.31.4v1.03h2.37v.7h1.04v-3.36h.97v3.36h2.32ZM104.38,13.05h1.47v-1.06h-1.47v1.06ZM104.38,14.84h1.47v-1.09h-1.47v1.09ZM108.21,13.05v-1.06h-1.55v1.06h1.55ZM108.21,14.84v-1.09h-1.55v1.09h1.55ZM110.15,11.13h-1.1v-.82h-2.31v.94h2.26v4.33h-2.28v.95h2.32v.86h-2.32v1.16c.7-.06,1.43-.13,2.16-.21,1.13-2.14,1.27-4.69,1.27-6.8v-.42Z"/>
      <path class="cls-2" d="M123.77,8.76c-.29.21-.7.56-.91.75-.92.79-2.82,2.31-3.8,3.12-.8.7-.8.9.05,1.61,1.2.96,3.65,3,4.95,4.28l-.96.87c-.27-.32-.63-.66-.91-.96-.72-.78-2.93-2.66-4.17-3.68-1.24-1.04-1.11-1.65.09-2.65.99-.84,3-2.42,3.89-3.33.27-.27.62-.64.76-.88l1,.88Z"/>
      <path class="cls-2" d="M135.11,7.17c-.02.19-.02.43-.03.68.13,1.96.94,8.84,6.53,11.4-.31.24-.65.61-.82.91-3.84-1.82-5.48-5.63-6.19-8.6-.65,2.98-2.19,6.56-5.95,8.6-.19-.27-.55-.61-.89-.85,6.03-3.08,6.03-10.18,6.13-12.15h1.22Z"/>
      <path class="cls-2" d="M148.19,8.01c-.06.27-.13.55-.17.82-.08.4-.21,1.22-.36,1.96.64-.06,1.21-.1,1.55-.1,1.24,0,2.25.49,2.25,2.36,0,1.65-.22,3.83-.8,4.99-.45.92-1.13,1.15-2.02,1.15-.53,0-1.19-.1-1.63-.2l-.18-1.19c.59.2,1.31.31,1.7.31.5,0,.91-.11,1.2-.71.45-.92.66-2.72.66-4.22,0-1.26-.57-1.48-1.47-1.48-.33,0-.88.04-1.48.1-.5,1.98-1.45,5.1-2.91,7.42l-1.13-.46c1.41-1.89,2.43-5,2.91-6.84-.73.07-1.38.14-1.75.18-.34.04-.89.1-1.24.17l-.11-1.21c.43.01.78.01,1.23,0,.46-.01,1.26-.08,2.1-.15.2-.99.36-2.07.35-3l1.31.13ZM152.94,9.59c.87,1.12,2.07,3.63,2.53,4.92l-1.08.53c-.42-1.42-1.51-3.84-2.47-4.97l1.02-.47ZM153.51,9.81c-.28-.56-.75-1.41-1.13-1.94l.74-.31c.35.49.87,1.36,1.16,1.91l-.77.34ZM155.09,9.24c-.31-.6-.77-1.4-1.16-1.93l.74-.31c.36.5.91,1.38,1.17,1.9l-.75.34Z"/>
      <path class="cls-2" d="M170.4,18.74v1.09h-13.16v-1.09h5.95v-3.65h-4.58v-1.07h4.58v-3.26h-5.27v-1.09h6.53c-.58-.68-1.64-1.62-2.53-2.28l.89-.62c.95.68,2.14,1.7,2.72,2.4l-.7.51h4.81v1.09h-5.28v3.26h4.67v1.07h-4.67v3.65h6.03Z"/>
      <path class="cls-2" d="M176.74,10.02c-.42.7-.92,1.4-1.47,2.07v8.2h-1.07v-7.01c-.58.59-1.19,1.13-1.77,1.59-.12-.24-.46-.77-.65-1.01,1.49-1.01,3.04-2.61,3.97-4.21l1,.37ZM176.3,7.14c-.89,1.32-2.37,2.75-3.74,3.63-.12-.24-.4-.68-.58-.89,1.22-.79,2.59-2.07,3.27-3.16l1.04.42ZM184.56,13.51c-.6,1.74-1.61,3.13-2.86,4.21,1.12.76,2.5,1.32,4.09,1.62-.24.22-.55.67-.72.97-1.68-.37-3.1-1.01-4.27-1.91-1.25.88-2.66,1.5-4.12,1.92-.13-.27-.4-.71-.61-.94,1.35-.34,2.71-.91,3.89-1.71-.91-.89-1.64-1.96-2.16-3.21l.79-.24h-1.68v-1.01h6.7l.22-.04.73.34ZM179.2,9.03c0,1.28-.33,2.86-1.92,3.91-.18-.19-.63-.54-.88-.67,1.5-.94,1.74-2.23,1.74-3.26v-1.73h5.06v3.5c0,.3.01.46.09.52.06.04.16.06.27.06h.54c.13,0,.28-.02.36-.05.07-.04.15-.15.18-.33.04-.21.06-.64.07-1.21.21.18.55.34.85.43-.03.57-.07,1.21-.16,1.44-.1.25-.25.42-.46.49-.19.09-.54.15-.77.15h-.83c-.33,0-.67-.09-.91-.27-.24-.19-.31-.45-.31-1.29v-2.47h-2.9v.76ZM178.81,14.23c.45,1.07,1.13,2.02,2.01,2.81.92-.79,1.7-1.73,2.23-2.81h-4.24Z"/>
      <path class="cls-2" d="M193.21,18.14c.43-.03.85-.1,1.19-.17,1.77-.39,3.51-1.7,3.51-4.09,0-2.1-1.33-3.81-3.67-4.01-.18,1.29-.45,2.68-.82,3.98-.85,2.83-1.95,4.3-3.24,4.3s-2.47-1.42-2.47-3.7c0-3,2.68-5.63,6.06-5.63s5.31,2.29,5.31,5.08-1.91,4.85-5.21,5.28l-.64-1.05ZM192.3,13.61c.35-1.15.61-2.46.77-3.73-2.65.34-4.27,2.61-4.27,4.47,0,1.75.81,2.51,1.41,2.51s1.38-.92,2.1-3.25Z"/>
      <path class="cls-2" d="M203.16,15.44c-.28,1.2-.8,2.41-1.39,3.2-.16-.16-.54-.45-.76-.57.57-.71,1-1.77,1.24-2.81l.91.19ZM207.59,10.01h-6.31v-.91h2.7v-1.7h.99v1.7h2.62v.91ZM204.97,14.54v3.95c0,.48-.08.76-.43.92-.35.15-.9.16-1.69.16-.05-.27-.19-.66-.32-.9.6.01,1.11.01,1.28,0,.16-.01.21-.05.21-.2v-3.93h-2.03v-3.49h4.98v3.49h-2.01ZM202.92,13.69h3.1v-1.79h-3.1v1.79ZM206.59,17.69c-.16-.62-.54-1.57-.92-2.27l.79-.28c.42.7.8,1.63.96,2.25l-.83.31ZM212,18.6c.15,0,.33-.03.41-.08.09-.05.19-.19.21-.35.03-.24.05-.88.04-1.62.19.17.52.33.76.41,0,.71-.05,1.51-.12,1.81-.09.29-.23.48-.45.61-.19.09-.51.15-.79.15h-.84c-.31,0-.63-.07-.87-.23-.23-.2-.29-.41-.29-1.1v-4.03c-.39,1.93-1.19,3.88-2.88,5.46-.19-.17-.59-.45-.86-.58,2.29-2.07,2.9-4.84,3.05-7.2h-1.89v-.95h1.93c.01-.25.01-.49.01-.72v-2.8h.96v2.78c0,.24,0,.48-.01.74h2.89v.95h-2.92c-.01.21-.04.43-.05.66h.67v5.73c0,.12.04.21.12.25.09.07.21.09.36.09h.55ZM212.33,10.39c-.25-.64-.87-1.56-1.51-2.21l.76-.39c.67.64,1.3,1.54,1.58,2.18l-.83.41Z"/>
      <path class="cls-2" d="M218.53,8.87v10.74h-.84v-2.54c-1.07.24-2.13.47-2.98.64l-.17-.91c.25-.04.54-.09.84-.16v-7.77h-.62v-.9h4.43v.76h1.58v-1.31h.88v1.31h1.7v.76h-4.17v-.63h-.64ZM217.68,8.87h-1.47v1.9h1.47v-1.9ZM217.68,11.6h-1.47v1.91h1.47v-1.91ZM217.68,16.2v-1.86h-1.47v2.14l1.47-.28ZM226.47,13.31c-.33,1.26-.8,2.38-1.39,3.36.19,1.11.44,1.77.75,1.78.2,0,.37-.75.45-2.01.15.2.51.44.66.52-.24,2.09-.71,2.64-1.14,2.62-.63-.01-1.08-.72-1.39-1.93-.59.76-1.27,1.42-2.03,1.95-.11-.16-.43-.51-.61-.67.96-.62,1.76-1.42,2.42-2.41-.19-1.12-.31-2.51-.39-4.09h-5.02v-.82h4.98c-.05-1.3-.08-2.72-.09-4.2h.88c0,1.47.03,2.9.08,4.2h2.22v.82h-2.18c.05,1.06.12,2.01.21,2.84.31-.67.56-1.38.75-2.15l.84.19ZM220.29,17.81v.84h-.8v-5.4h3.56v4.56h-2.76ZM220.25,9.59c.24.58.43,1.35.45,1.86l-.74.17c-.01-.51-.19-1.28-.4-1.89l.68-.15ZM220.29,13.99v1.15h1.95v-1.15h-1.95ZM222.24,17.06v-1.19h-1.95v1.19h1.95ZM221.64,11.44c.16-.51.36-1.32.45-1.87l.82.17c-.21.64-.44,1.39-.61,1.87l-.66-.17ZM226.14,10.46c-.24-.62-.82-1.54-1.38-2.21l.68-.36c.59.66,1.16,1.57,1.42,2.18l-.72.39Z"/>
      <path class="cls-2" d="M239.91,12.77c-.83,2.07-2.19,3.62-3.89,4.79,1.59.86,3.54,1.44,5.78,1.74-.25.24-.55.73-.7,1.04-2.41-.37-4.47-1.07-6.15-2.11-1.83,1.01-3.94,1.67-6.18,2.07-.09-.28-.39-.8-.6-1.04,2.1-.33,4.08-.88,5.78-1.73-1.29-1.01-2.32-2.26-3.08-3.78l.89-.31h-2.35v-1.09h4.97v-2.29h-5.64v-1.07h5.64v-2.26h1.13v2.26h5.67v1.07h-5.67v2.29h3.42l.21-.04.76.46ZM231.9,13.44c.71,1.41,1.76,2.57,3.1,3.5,1.41-.88,2.56-2.02,3.32-3.5h-6.42Z"/>
      <path class="cls-2" d="M246.15,15.08v3.94c0,.61-.15.91-.52,1.09-.34.18-.91.22-1.85.21-.04-.27-.18-.71-.33-1.03.64.01,1.24.01,1.4,0,.18,0,.25-.04.25-.27v-3.6c-.64.21-1.24.4-1.79.57l-.18-1.07c.55-.15,1.22-.36,1.97-.58v-3.6h-1.85v-1.03h1.85v-2.98h1.04v2.98h1.59v1.03h-1.59v3.28l1.55-.49.15,1-1.7.57ZM255.69,14.97c-.45,1.4-1.15,2.47-2.04,3.3.95.54,2.08.91,3.3,1.13-.24.22-.52.65-.67.94-1.31-.28-2.49-.74-3.48-1.4-.95.66-2.05,1.09-3.25,1.38-.12-.22-.42-.65-.63-.82,1.13-.25,2.16-.63,3.04-1.16-.68-.55-1.28-1.19-1.74-1.93-.58,1.52-1.46,2.92-2.93,3.88-.16-.25-.51-.61-.76-.77,2.13-1.32,2.93-3.63,3.29-5.79h-2.02v-.94h2.17c.05-.4.09-.8.12-1.18h-1.95v-.91h5.28c.48-.73,1.04-1.76,1.37-2.5l1.04.34c-.42.71-.91,1.52-1.37,2.16h1.8v.91h-5.11c-.03.37-.07.77-.12,1.18h5.66v.94h-5.81c-.05.33-.12.67-.19,1h4.17l.19-.03.63.27ZM256,7.65c-2.01.45-5.21.68-7.81.76-.03-.25-.16-.61-.27-.86,2.58-.09,5.72-.34,7.44-.73l.64.83ZM249.43,8.6c.27.57.61,1.34.74,1.8l-.91.31c-.13-.51-.42-1.3-.7-1.89l.86-.22ZM250.83,15.6c.48.83,1.15,1.56,1.98,2.16.67-.57,1.21-1.28,1.58-2.16h-3.56ZM251.62,10.54c-.05-.51-.22-1.37-.39-2.02l.88-.15c.19.64.37,1.47.45,1.96l-.94.21Z"/>
      <path class="cls-2" d="M269.96,10.67c.65,0,1.16-.04,1.35-.07v1.25c-.15-.02-.7-.05-1.35-.05h-1.64v.52c0,3.97-.85,6.01-4.26,7.53l-1-.94c2.71-1.04,4.06-2.32,4.06-6.49v-.63h-4.24v2.41c0,.55.04,1.21.06,1.35h-1.31c.01-.15.06-.79.06-1.35v-2.41h-1.59c-.65,0-1.32.05-1.5.06v-1.3c.13.03.86.1,1.5.1h1.59v-1.91c0-.48-.05-.94-.06-1.09h1.32c-.01.15-.07.57-.07,1.09v1.91h4.24v-1.86c0-.58-.05-1.07-.07-1.22h1.34c-.01.15-.07.64-.07,1.22v1.86h1.64Z"/>
      <path class="cls-2" d="M274.16,12.73c.45.03,1.24.07,2.07.07h8.16c.74,0,1.28-.05,1.61-.07v1.46c-.3-.01-.92-.07-1.59-.07h-8.17c-.82,0-1.61.03-2.07.07v-1.46Z"/>
      <path class="cls-2" d="M291.76,17.07c0,.76.31.95,1.04,1.1.46.07,1.23.12,1.96.12,1.58,0,3.86-.15,5.09-.48v1.35c-1.29.19-3.53.31-5.15.31-.88,0-1.77-.04-2.38-.15-1.15-.21-1.79-.73-1.79-1.94v-8.19c0-.36-.01-.86-.09-1.21h1.38c-.04.34-.07.79-.07,1.21v3.36c1.76-.43,4.11-1.15,5.66-1.82.46-.19.89-.42,1.31-.67l.52,1.19c-.42.18-.95.42-1.4.58-1.67.67-4.24,1.46-6.09,1.94v3.27ZM298.93,9.91c-.3-.61-.8-1.5-1.21-2.07l.79-.33c.37.52.91,1.43,1.22,2.02l-.8.37ZM300.15,6.91c.39.55.97,1.47,1.25,2.02l-.8.37c-.33-.65-.82-1.49-1.24-2.05l.79-.34Z"/>
      <path class="cls-2" d="M314.62,9.21c-.09.12-.28.45-.37.66-.51,1.28-1.44,3.02-2.5,4.36,1.56,1.34,3.38,3.27,4.35,4.44l-1.04.91c-1-1.31-2.57-3.07-4.09-4.42-1.59,1.71-3.6,3.35-5.81,4.35l-.95-1c2.4-.94,4.6-2.71,6.13-4.42,1.01-1.15,2.1-2.92,2.47-4.14h-5.81c-.52,0-1.34.06-1.5.07v-1.35c.21.03,1.06.1,1.5.1h5.75c.49,0,.88-.06,1.12-.13l.76.58Z"/>
    </g>
  </g>
</svg>