<?xml version="1.0" encoding="UTF-8"?>
<svg id="_レイヤー_2" data-name="レイヤー_2" xmlns="http://www.w3.org/2000/svg" viewBox="0 0 352.05 77.91">
  <defs>
    <style>
      .cls-1 {
        fill: #fff;
      }

      .cls-2 {
        fill: #414141;
      }

      .cls-3 {
        fill: #e60039;
      }
    </style>
  </defs>
  <g id="_レイヤー_1-2" data-name="レイヤー_1">
    <g id="_レイヤー_1-2">
      <g>
        <path class="cls-3" d="M53.37,20.72l-.46-20.72-11.7,19.96C18.26,20.7,0,33.38,0,48.92s19.39,28.99,43.33,28.99,43.33-12.98,43.33-28.99c0-13.7-14.2-25.17-33.29-28.2Z"/>
        <path class="cls-1" d="M65.59,59.05c-3.25,0-5.83-.98-7.75-2.97-2.05-2.11-3.1-5.08-3.1-8.99-.03-3.83,1.08-7.04,3.32-9.54,2.11-2.42,4.68-3.64,7.72-3.64,2.51,0,4.62,1.02,6.35,2.97,1.8,2.03,2.7,4.65,2.7,7.78,0,2.85-.68,5.12-1.98,6.8-1.24,1.56-2.48,2.35-3.75,2.35s-1.98-.78-2.14-2.35c-1.12,1.64-2.29,2.42-3.56,2.42-1.18,0-2.11-.43-2.76-1.33s-.99-2.11-.99-3.6c-.03-2.35.56-4.57,1.74-6.68,1.24-2.27,2.76-3.4,4.52-3.4,1.24,0,2.17.7,2.76,2.11l.22-1.17h2.01l-1.67,8.01c-.31,1.41-.43,2.31-.43,2.74,0,.47.19.7.62.7.59,0,1.24-.43,1.92-1.33.99-1.29,1.52-3.28,1.52-5.94,0-2.11-.71-3.95-2.11-5.43-1.43-1.49-3.1-2.27-4.96-2.27-2.42,0-4.43,1.02-6.04,3.05-1.64,2.03-2.45,4.61-2.45,7.74s.77,5.59,2.32,7.23c1.46,1.56,3.53,2.35,6.2,2.35s5.18-1.41,7.75-4.26l1.36,1.13c-2.42,3.67-5.52,5.51-9.33,5.51h0ZM67.01,42.28c-.37-.43-.77-.67-1.24-.67-.87,0-1.7.9-2.51,2.66-.74,1.6-1.08,2.97-1.08,4.14,0,1.72.43,2.54,1.36,2.54.84,0,1.67-.7,2.51-2.11.96-1.64,1.46-3.32,1.46-5,0-.59-.19-1.09-.5-1.56Z"/>
        <path class="cls-1" d="M23.33,58.2c-3.29,0-5.9-.98-7.84-2.97-2.07-2.11-3.14-5.08-3.14-8.99-.03-3.83,1.1-7.04,3.36-9.54,2.13-2.42,4.74-3.64,7.81-3.64,2.54,0,4.67,1.02,6.43,2.97,1.82,2.03,2.73,4.65,2.73,7.78,0,2.85-.69,5.12-2.01,6.8-1.25,1.56-2.51,2.35-3.8,2.35s-2.01-.78-2.16-2.35c-1.13,1.64-2.32,2.42-3.61,2.42-1.19,0-2.13-.43-2.79-1.33s-1-2.11-1-3.6c-.03-2.35.56-4.57,1.76-6.68,1.25-2.27,2.79-3.4,4.58-3.4,1.25,0,2.2.7,2.79,2.11l.22-1.17h2.04l-1.69,8.01c-.31,1.41-.44,2.31-.44,2.74,0,.47.19.7.63.7.6,0,1.25-.43,1.94-1.33,1-1.29,1.54-3.28,1.54-5.94,0-2.11-.72-3.95-2.13-5.43-1.44-1.49-3.14-2.27-5.02-2.27-2.45,0-4.49,1.02-6.12,3.05-1.66,2.03-2.48,4.61-2.48,7.74s.78,5.59,2.35,7.23c1.47,1.56,3.58,2.35,6.27,2.35s5.24-1.41,7.84-4.26l1.38,1.13c-2.45,3.67-5.58,5.51-9.44,5.51h0ZM24.77,41.43c-.38-.43-.78-.67-1.25-.67-.88,0-1.73.9-2.54,2.66-.75,1.6-1.1,2.97-1.1,4.14,0,1.72.44,2.54,1.38,2.54.85,0,1.69-.7,2.54-2.11.97-1.64,1.47-3.32,1.47-5,0-.59-.19-1.09-.5-1.56Z"/>
        <ellipse class="cls-1" cx="43.09" cy="52.89" rx="3.78" ry="2.59"/>
      </g>
    </g>
    <path class="cls-2" d="M106.12,25.11l5.49.15c-.45,9.58-.67,17.23-.67,22.94,0,3.01.17,5.46.51,7.34.34,1.88.92,3.34,1.75,4.39s1.78,1.74,2.87,2.1c1.09.36,2.51.54,4.26.54,6.98,0,12.45-5.11,16.42-15.34l4.88,1.85c-2.26,6.19-5.21,10.85-8.85,13.96-3.64,3.11-7.79,4.67-12.44,4.67-5.58,0-9.45-1.39-11.62-4.18-2.17-2.79-3.26-7.89-3.26-15.32,0-6.77.22-14.47.67-23.09Z"/>
    <path class="cls-2" d="M152.66,55.9c0-3.42,2.57-7.65,7.7-12.68l3.9,3.13c-4.07,3.93-6.11,6.95-6.11,9.03s1.23,3.64,3.69,4.85c2.46,1.22,5.9,1.82,10.32,1.82,2.5,0,5.41-.22,8.75-.67,3.34-.44,6.08-.99,8.24-1.64l1.03,4.88c-2.22.65-5.09,1.2-8.6,1.64-3.51.44-6.64.67-9.42.67-6.02,0-10.78-1.01-14.27-3.03-3.49-2.02-5.23-4.69-5.23-8.01ZM157.28,31.62v-4.72h29.76v4.72h-29.76ZM181.08,37.8l3.81-1.97c1.88,3.32,3.27,5.88,4.18,7.66l-3.81,1.83c-1.44-2.73-2.84-5.23-4.18-7.52ZM188.03,36.11l3.9-2.02c1.6,2.82,3.02,5.42,4.28,7.8l-3.9,1.88c-1.32-2.51-2.74-5.06-4.28-7.66Z"/>
    <path class="cls-2" d="M211.86,25.41l5.49-.87c.96,5.54,2.05,10.79,3.28,15.75,5.27-2.36,12.16-4.52,20.68-6.47l1.03,4.88c-9.99,2.26-17.48,4.78-22.48,7.57-4.99,2.79-7.49,5.65-7.49,8.6,0,4.96,4.53,7.44,13.6,7.44,4.99,0,10.37-.43,16.11-1.28l.62,4.88c-5.85.85-11.43,1.28-16.73,1.28-6.33,0-11.12-1.03-14.37-3.08-3.25-2.05-4.87-5.05-4.87-8.98,0-4.55,2.93-8.6,8.77-12.16-1.4-5.68-2.62-11.53-3.64-17.55Z"/>
    <path class="cls-2" d="M255.93,34.6h20.53v-10.01h5.65v10.01h16.93v5.13h-16.93v1.28c0,7.87-1.52,13.79-4.57,17.76-3.05,3.97-8.13,6.69-15.24,8.16l-1.85-4.98c6.02-1.26,10.19-3.42,12.52-6.47,2.33-3.04,3.49-7.87,3.49-14.47v-1.28h-20.53v-5.13Z"/>
    <path class="cls-2" d="M311.64,26.9h5.49v14.98c9.78-1.61,19.64-4.12,29.56-7.54l1.49,4.88c-10.26,3.52-20.61,6.12-31.05,7.8v7.18c0,2.94.46,4.88,1.39,5.8s2.86,1.39,5.8,1.39c8.55,0,16.25-.24,23.09-.72l.15,4.98c-8.21.51-16.08.77-23.61.77-4.72,0-7.95-.86-9.7-2.59-1.74-1.73-2.62-4.97-2.62-9.72v-27.2ZM337.09,25.24l3.76-1.95c1.86,3.28,3.24,5.81,4.14,7.57l-3.76,1.81c-1.43-2.69-2.8-5.17-4.14-7.43ZM343.97,23.56l3.86-2c1.58,2.79,2.99,5.36,4.23,7.71l-3.86,1.86c-1.3-2.48-2.71-5-4.23-7.57Z"/>
  </g>
</svg>